<mxfile host="app.diagrams.net" modified="2023-08-02T15:56:28.605Z" agent="Mozilla/5.0 (Windows NT 10.0; Win64; x64) AppleWebKit/537.36 (KHTML, like Gecko) Chrome/113.0.0.0 Safari/537.36" etag="_HJaLWB2rHcJq65A0lYc" version="21.6.6" type="github">
  <diagram name="Page-1" id="c7558073-3199-34d8-9f00-42111426c3f3">
    <mxGraphModel dx="1434" dy="764" grid="1" gridSize="10" guides="1" tooltips="1" connect="1" arrows="1" fold="1" page="1" pageScale="1" pageWidth="1169" pageHeight="1654" background="none" math="0" shadow="0">
      <root>
        <mxCell id="0" />
        <mxCell id="1" parent="0" />
        <mxCell id="Cm6hgss15lmzkSMrv29P-103" style="edgeStyle=orthogonalEdgeStyle;rounded=0;orthogonalLoop=1;jettySize=auto;html=1;exitX=0.5;exitY=1;exitDx=0;exitDy=0;" edge="1" parent="1" source="Cm6hgss15lmzkSMrv29P-96">
          <mxGeometry relative="1" as="geometry">
            <mxPoint x="140" y="410" as="targetPoint" />
          </mxGeometry>
        </mxCell>
        <mxCell id="Cm6hgss15lmzkSMrv29P-104" value="err count++" style="edgeLabel;html=1;align=center;verticalAlign=middle;resizable=0;points=[];" vertex="1" connectable="0" parent="Cm6hgss15lmzkSMrv29P-103">
          <mxGeometry x="-0.0706" y="3" relative="1" as="geometry">
            <mxPoint as="offset" />
          </mxGeometry>
        </mxCell>
        <mxCell id="Cm6hgss15lmzkSMrv29P-96" value="wmsvr" style="rounded=1;whiteSpace=wrap;html=1;strokeWidth=2;fillWeight=4;hachureGap=8;hachureAngle=45;fillColor=#dae8fc;sketch=1;strokeColor=#6c8ebf;" vertex="1" parent="1">
          <mxGeometry x="70" y="240" width="140" height="50" as="geometry" />
        </mxCell>
        <mxCell id="Cm6hgss15lmzkSMrv29P-97" value="" style="endArrow=classic;html=1;rounded=0;entryX=0.5;entryY=0;entryDx=0;entryDy=0;" edge="1" parent="1" target="Cm6hgss15lmzkSMrv29P-96">
          <mxGeometry width="50" height="50" relative="1" as="geometry">
            <mxPoint x="140" y="120" as="sourcePoint" />
            <mxPoint x="470" y="420" as="targetPoint" />
          </mxGeometry>
        </mxCell>
        <mxCell id="Cm6hgss15lmzkSMrv29P-98" value="Text" style="edgeLabel;html=1;align=center;verticalAlign=middle;resizable=0;points=[];" vertex="1" connectable="0" parent="Cm6hgss15lmzkSMrv29P-97">
          <mxGeometry x="-0.1" y="-4" relative="1" as="geometry">
            <mxPoint as="offset" />
          </mxGeometry>
        </mxCell>
        <mxCell id="Cm6hgss15lmzkSMrv29P-100" value="输入错误密码" style="edgeLabel;html=1;align=center;verticalAlign=middle;resizable=0;points=[];" vertex="1" connectable="0" parent="Cm6hgss15lmzkSMrv29P-97">
          <mxGeometry x="-0.1" y="1" relative="1" as="geometry">
            <mxPoint as="offset" />
          </mxGeometry>
        </mxCell>
        <mxCell id="Cm6hgss15lmzkSMrv29P-106" value="用户登录" style="text;html=1;strokeColor=#666666;fillColor=#f5f5f5;align=center;verticalAlign=middle;whiteSpace=wrap;rounded=0;fontColor=#333333;" vertex="1" parent="1">
          <mxGeometry x="50" y="20" width="60" height="30" as="geometry" />
        </mxCell>
        <mxCell id="Cm6hgss15lmzkSMrv29P-107" value="...(重复 n 次)" style="text;html=1;align=center;verticalAlign=middle;resizable=0;points=[];autosize=1;strokeColor=none;fillColor=none;" vertex="1" parent="1">
          <mxGeometry x="240" y="250" width="90" height="30" as="geometry" />
        </mxCell>
        <mxCell id="Cm6hgss15lmzkSMrv29P-109" style="edgeStyle=orthogonalEdgeStyle;rounded=0;orthogonalLoop=1;jettySize=auto;html=1;exitX=0.5;exitY=1;exitDx=0;exitDy=0;" edge="1" parent="1" source="Cm6hgss15lmzkSMrv29P-111">
          <mxGeometry relative="1" as="geometry">
            <mxPoint x="430" y="410" as="targetPoint" />
          </mxGeometry>
        </mxCell>
        <mxCell id="Cm6hgss15lmzkSMrv29P-111" value="wmsvr" style="rounded=1;whiteSpace=wrap;html=1;strokeWidth=2;fillWeight=4;hachureGap=8;hachureAngle=45;fillColor=#dae8fc;sketch=1;strokeColor=#6c8ebf;" vertex="1" parent="1">
          <mxGeometry x="360" y="240" width="140" height="50" as="geometry" />
        </mxCell>
        <mxCell id="Cm6hgss15lmzkSMrv29P-112" value="" style="endArrow=classic;html=1;rounded=0;entryX=0.5;entryY=0;entryDx=0;entryDy=0;" edge="1" parent="1" target="Cm6hgss15lmzkSMrv29P-111">
          <mxGeometry width="50" height="50" relative="1" as="geometry">
            <mxPoint x="430" y="120" as="sourcePoint" />
            <mxPoint x="760" y="420" as="targetPoint" />
          </mxGeometry>
        </mxCell>
        <mxCell id="Cm6hgss15lmzkSMrv29P-113" value="Text" style="edgeLabel;html=1;align=center;verticalAlign=middle;resizable=0;points=[];" vertex="1" connectable="0" parent="Cm6hgss15lmzkSMrv29P-112">
          <mxGeometry x="-0.1" y="-4" relative="1" as="geometry">
            <mxPoint as="offset" />
          </mxGeometry>
        </mxCell>
        <mxCell id="Cm6hgss15lmzkSMrv29P-114" value="输入密码" style="edgeLabel;html=1;align=center;verticalAlign=middle;resizable=0;points=[];" vertex="1" connectable="0" parent="Cm6hgss15lmzkSMrv29P-112">
          <mxGeometry x="-0.1" y="1" relative="1" as="geometry">
            <mxPoint as="offset" />
          </mxGeometry>
        </mxCell>
      </root>
    </mxGraphModel>
  </diagram>
</mxfile>
